<svg width="542" height="243" viewBox="0 0 542 243" fill="none" xmlns="http://www.w3.org/2000/svg">
<path d="M427.758 207.191C425.341 209.651 423.686 212.989 423.744 216.443C423.83 221.781 427.816 226.227 432.031 229.522C443.341 238.342 458.133 242.544 472.377 240.99C477.413 240.443 482.536 239.119 486.478 235.954C490.421 232.788 492.924 227.435 491.586 222.558C490.723 219.421 488.421 216.845 485.73 215.032C483.025 213.234 479.931 212.126 476.838 211.119C467.802 208.169 458.535 205.896 449.154 204.327C440.938 202.96 434.247 200.601 427.758 207.205V207.191Z" fill="white" stroke="black" stroke-width="3" stroke-linecap="round" stroke-linejoin="round"/>
<path d="M491.586 222.544C490.723 219.407 488.421 216.831 485.73 215.019C483.025 213.22 479.932 212.112 476.838 211.105C467.802 208.155 458.536 205.882 449.154 204.313C440.938 202.946 434.248 200.587 427.758 207.191C427.6 207.349 427.456 207.522 427.298 207.695C427.989 208.788 428.722 209.853 429.514 210.889C432.909 215.277 437.658 218.429 442.981 219.983C446.91 221.134 450.579 221.752 454.205 221.493C458.895 221.162 463.5 222.587 467.529 225.004C474.579 229.22 483.773 230.011 491.687 227.364C491.716 227.364 491.745 227.35 491.759 227.335C492.047 225.752 492.018 224.127 491.586 222.544Z" fill="black" stroke="black" stroke-width="3" stroke-linecap="round" stroke-linejoin="round"/>
<path d="M430.521 207.55C422.995 197.824 420.089 184.658 422.852 172.672C425.643 160.543 434.19 149.881 445.399 144.485C448.089 130.125 450.507 115.722 453.197 101.377C454.276 95.5924 455.413 89.6786 458.377 84.5994C461.341 79.5202 466.536 75.3331 472.421 75.2468C480.334 75.1173 486.752 82.4843 488.363 90.2398C489.975 97.9953 487.946 105.981 485.946 113.636C484.306 119.909 482.78 126.24 481.011 132.47C480.55 134.082 479.054 143.636 480.377 145.003C482.277 146.96 487.169 138.255 488.262 136.701C493.629 129.089 494.809 126.542 497.601 121.075C500.378 115.607 502.953 109.967 506.709 105.118C510.464 100.269 515.615 96.1823 521.658 95.1175C527.702 94.0528 534.594 96.6283 537.328 102.125C539.169 105.837 538.925 110.298 537.587 114.211C536.249 118.125 533.918 121.607 531.615 125.046L510.378 156.687C509.097 158.6 508.881 161.061 509.946 163.104C511.385 165.867 513.817 168.01 515.658 170.528C522.105 179.334 520.766 191.824 516.119 201.694C511.399 211.723 503.198 220.486 492.694 224.011C484.795 226.659 475.6 225.867 468.536 221.651C464.507 219.248 459.902 217.81 455.212 218.141C451.586 218.4 447.931 217.766 443.989 216.63C438.665 215.076 433.916 211.925 430.521 207.536V207.55Z" fill="white" stroke="black" stroke-width="3" stroke-linecap="round" stroke-linejoin="round"/>
<path d="M450.808 173.406C450.808 173.406 469.01 182.716 469.01 199.061C469.01 199.061 473.96 195.996 478.032 196.183C478.032 196.183 484.161 205.104 495.615 203.968C495.615 203.968 500.42 215.608 510.305 211.119C520.19 206.63 518.924 179.133 503.917 171.852C488.909 164.572 458.492 162.14 458.492 162.14L450.794 173.421L450.808 173.406Z" fill="#D8D8D8"/>
<path d="M513.989 169.449C508.996 172.917 505.5 177.924 502.363 183.018C499.816 187.162 497.385 191.593 497.313 196.701C497.241 201.795 500.176 207.723 505.385 210.054C511.356 212.73 517.543 209.852 522.047 206.428C527.903 201.982 532.853 196.514 536.637 190.327C538.81 186.773 540.637 182.802 540.335 178.399C540.004 173.794 535.889 167.334 530.781 165.694C524.968 163.837 518.076 166.6 513.975 169.449H513.989Z" fill="white" stroke="black" stroke-width="3" stroke-linecap="round" stroke-linejoin="round"/>
<path d="M507.802 150.615C502.881 152.284 498.795 155.895 495.73 160.083C492.651 164.27 490.493 169.047 488.407 173.809C486.277 178.687 484.176 183.809 484.421 189.133C484.68 194.457 487.989 200.011 493.212 201.076C498.579 202.169 503.658 198.371 507.529 194.5C514.133 187.881 519.774 180.299 524.205 172.054C527.644 165.651 528.335 160.025 523.803 153.982C520.306 149.32 512.982 148.859 507.802 150.615Z" fill="white" stroke="black" stroke-width="3" stroke-linecap="round" stroke-linejoin="round"/>
<path d="M444.42 144.974C461.053 139.78 477.01 143.075 492.262 151.521C495.284 153.204 498.233 155.175 500.349 157.909C502.464 160.643 503.672 164.269 502.867 167.636C502.162 170.543 500.046 172.974 497.514 174.557C494.982 176.14 492.046 176.989 489.111 177.593C474.564 180.629 458.952 178.226 445.974 170.96" fill="white"/>
<path d="M444.42 144.974C461.053 139.78 477.01 143.075 492.262 151.521C495.284 153.204 498.233 155.175 500.349 157.909C502.464 160.643 503.672 164.269 502.867 167.636C502.162 170.543 500.046 172.974 497.514 174.557C494.982 176.14 492.046 176.989 489.111 177.593C474.564 180.629 458.952 178.226 445.974 170.96" stroke="black" stroke-width="3" stroke-linecap="round" stroke-linejoin="round"/>
<path d="M469.6 178.759C472.161 186.831 471.197 195.522 466.924 202.831" stroke="black" stroke-width="3" stroke-linecap="round" stroke-linejoin="round"/>
<path d="M114.24 207.191C116.657 209.651 118.312 212.989 118.254 216.443C118.168 221.781 114.182 226.227 109.967 229.522C98.6571 238.342 83.8655 242.544 69.6208 240.99C64.5847 240.443 59.4624 239.119 55.5199 235.954C51.5774 232.788 49.0738 227.435 50.4119 222.558C51.2752 219.421 53.5774 216.845 56.2681 215.032C58.9731 213.234 62.0667 212.126 65.1603 211.119C74.1964 208.169 83.4626 205.896 92.844 204.327C101.06 202.96 107.751 200.601 114.24 207.205V207.191Z" fill="white" stroke="black" stroke-width="3" stroke-linecap="round" stroke-linejoin="round"/>
<path d="M50.4117 222.544C51.275 219.407 53.5772 216.831 56.2679 215.019C58.9729 213.22 62.0665 212.112 65.1601 211.105C74.1961 208.155 83.4624 205.882 92.8438 204.313C101.06 202.946 107.75 200.587 114.24 207.191C114.398 207.349 114.542 207.522 114.7 207.695C114.01 208.788 113.276 209.853 112.484 210.889C109.089 215.277 104.34 218.429 99.0166 219.983C95.0885 221.134 91.4194 221.752 87.7934 221.493C83.1027 221.162 78.4984 222.587 74.4695 225.004C67.4191 229.22 58.2247 230.011 50.311 227.364C50.2822 227.364 50.2534 227.35 50.239 227.335C49.9512 225.752 49.98 224.127 50.4117 222.544Z" fill="black" stroke="black" stroke-width="3" stroke-linecap="round" stroke-linejoin="round"/>
<path d="M111.477 207.55C119.003 197.824 121.909 184.658 119.146 172.672C116.355 160.543 107.808 149.881 96.5994 144.485C93.9088 130.125 91.4915 115.722 88.8008 101.377C87.7216 95.5924 86.5849 89.6786 83.6209 84.5994C80.6568 79.5202 75.4625 75.3331 69.5775 75.2468C61.6638 75.1173 55.2464 82.4843 53.6349 90.2398C52.0234 97.9953 54.0522 105.981 56.0522 113.636C57.6925 119.909 59.2177 126.24 60.9875 132.47C61.4479 134.082 62.9444 143.636 61.6206 145.003C59.7213 146.96 54.8292 138.255 53.7356 136.701C48.3687 129.089 47.1888 126.542 44.3974 121.075C41.6204 115.607 39.0448 109.967 35.2894 105.118C31.5339 100.269 26.3828 96.1823 20.3396 95.1175C14.2963 94.0528 7.40417 96.6283 4.67032 102.125C2.82858 105.837 3.07319 110.298 4.41134 114.211C5.74948 118.125 8.08044 121.607 10.3826 125.046L31.6203 156.687C32.9009 158.6 33.1167 161.061 32.0519 163.104C30.6131 165.867 28.1814 168.01 26.3396 170.528C19.8935 179.334 21.2317 191.824 25.8792 201.694C30.5987 211.723 38.8002 220.486 49.3039 224.011C57.2033 226.659 66.3976 225.867 73.4625 221.651C77.4913 219.248 82.0957 217.81 86.7864 218.141C90.4123 218.4 94.067 217.766 98.0095 216.63C103.333 215.076 108.082 211.925 111.477 207.536V207.55Z" fill="white" stroke="black" stroke-width="3" stroke-linecap="round" stroke-linejoin="round"/>
<path d="M91.1897 173.406C91.1897 173.406 72.9881 182.716 72.9881 199.061C72.9881 199.061 68.0384 195.996 63.9664 196.183C63.9664 196.183 57.8368 205.104 46.3835 203.968C46.3835 203.968 41.5776 215.608 31.6926 211.119C21.8076 206.63 23.0738 179.133 38.0812 171.852C53.0886 164.572 83.5062 162.14 83.5062 162.14L91.2041 173.421L91.1897 173.406Z" fill="#D8D8D8"/>
<path d="M28.0088 169.449C33.0016 172.917 36.4981 177.924 39.6348 183.018C42.1816 187.162 44.6133 191.593 44.6852 196.701C44.7572 201.795 41.8219 207.723 36.6132 210.054C30.6419 212.73 24.4548 209.852 19.9512 206.428C14.095 201.982 9.14528 196.514 5.36106 190.327C3.18837 186.773 1.361 182.802 1.66317 178.399C1.99411 173.794 6.10926 167.334 11.2172 165.694C17.0302 163.837 23.9224 166.6 28.0232 169.449H28.0088Z" fill="white" stroke="black" stroke-width="3" stroke-linecap="round" stroke-linejoin="round"/>
<path d="M34.1956 150.615C39.1166 152.284 43.2029 155.895 46.2677 160.083C49.3469 164.27 51.5052 169.047 53.5915 173.809C55.7211 178.687 57.8218 183.809 57.5772 189.133C57.3182 194.457 54.0088 200.011 48.7857 201.076C43.4188 202.169 38.3396 198.371 34.469 194.5C27.8646 187.881 22.2243 180.299 17.7926 172.054C14.3537 165.651 13.663 160.025 18.1955 153.982C21.6919 149.32 29.0157 148.859 34.1956 150.615Z" fill="white" stroke="black" stroke-width="3" stroke-linecap="round" stroke-linejoin="round"/>
<path d="M97.5781 144.974C80.9448 139.78 64.9878 143.075 49.7359 151.521C46.7142 153.204 43.7646 155.175 41.6494 157.909C39.5343 160.643 38.3257 164.269 39.1314 167.636C39.8365 170.543 41.9516 172.974 44.484 174.557C47.0164 176.14 49.9517 176.989 52.887 177.593C67.4339 180.629 83.0456 178.226 96.0241 170.96" fill="white"/>
<path d="M97.5781 144.974C80.9448 139.78 64.9878 143.075 49.7359 151.521C46.7142 153.204 43.7646 155.175 41.6494 157.909C39.5343 160.643 38.3257 164.269 39.1314 167.636C39.8365 170.543 41.9516 172.974 44.484 174.557C47.0164 176.14 49.9517 176.989 52.887 177.593C67.4339 180.629 83.0456 178.226 96.0241 170.96" stroke="black" stroke-width="3" stroke-linecap="round" stroke-linejoin="round"/>
<path d="M72.3979 178.759C69.8367 186.831 70.8008 195.522 75.0742 202.831" stroke="black" stroke-width="3" stroke-linecap="round" stroke-linejoin="round"/>
<path d="M251.994 84.2801C260.203 49.2129 279.932 44.7749 302.353 72.9666C305.112 72.1158 306.492 71.6789 309.251 70.8281C284.095 33.8293 251.626 42.0385 244.865 85.2919C247.717 84.878 249.142 84.671 252.017 84.2571L251.994 84.2801Z" fill="#FF18B2" stroke="black" stroke-width="3" stroke-miterlimit="10"/>
<path d="M360.32 23.664L389.688 17.067C393.901 16.1207 398.084 18.7688 399.03 22.9817L399.085 23.2285C400.032 27.4414 397.384 31.6239 393.171 32.5702L363.802 39.1671C359.589 40.1135 355.407 37.4654 354.46 33.2524L354.405 33.0056C353.459 28.7927 356.107 24.6103 360.32 23.664Z" fill="#FF18B2" stroke="black" stroke-width="3" stroke-miterlimit="10"/>
<path d="M152.49 86.6859L181.88 80.0839C186.076 79.1415 188.743 74.9602 187.795 70.7422L187.735 70.473C186.792 66.2775 182.611 63.6109 178.393 64.5583L149.002 71.1603C144.807 72.1027 142.14 76.2841 143.087 80.502L143.148 80.7712C144.09 84.9667 148.272 87.6334 152.49 86.6859Z" fill="#FF18B2" stroke="black" stroke-width="3" stroke-miterlimit="10"/>
<path d="M296.052 60.1585C301.824 85.8438 327.325 102.009 353.033 96.2145C378.719 90.4428 394.884 64.9415 389.089 39.2331C383.318 13.5478 357.816 -2.61761 332.108 3.17711C306.423 8.94884 290.257 34.4502 296.052 60.1585Z" fill="#FF18B2" stroke="black" stroke-width="3" stroke-miterlimit="10"/>
<path d="M187.936 124.813C163.464 115.074 151.52 87.3401 161.258 62.8674C170.997 38.3948 198.731 26.4506 223.204 36.1895C247.677 45.9283 259.621 73.6623 249.882 98.1349C240.143 122.608 212.409 134.552 187.936 124.813Z" fill="#FF18B2" stroke="black" stroke-width="3" stroke-miterlimit="10"/>
<path d="M342.525 88.8793C345.399 88.8793 348.32 88.5574 351.148 87.9135C361.358 85.614 370.05 79.4974 375.661 70.6444C381.248 61.8143 383.065 51.3056 380.788 41.1189C376.81 23.3898 360.76 10.5356 342.617 10.5356C339.743 10.5356 336.822 10.8576 333.994 11.5014C312.93 16.2384 299.639 37.2327 304.376 58.2961C308.354 76.0252 324.405 88.8793 342.548 88.8793H342.525Z" fill="black"/>
<path d="M342.595 11.6852C339.835 11.6852 337.03 11.9842 334.225 12.628C313.736 17.227 300.859 37.5775 305.458 58.043C309.436 75.7261 325.119 87.7294 342.503 87.7294C345.262 87.7294 348.068 87.4305 350.873 86.7866C371.361 82.1877 384.239 61.8371 379.64 41.3717C375.661 23.6886 359.979 11.6852 342.595 11.6852ZM342.595 9.38574C361.267 9.38574 377.8 22.6308 381.893 40.8658C384.262 51.3744 382.376 62.1591 376.627 71.2651C370.878 80.371 361.91 86.6717 351.402 89.0401C348.481 89.707 345.492 90.0289 342.526 90.0289C323.854 90.0289 307.321 76.7838 303.227 58.5489C300.859 48.0402 302.745 37.2556 308.493 28.1496C314.242 19.0436 323.21 12.743 333.719 10.3745C336.639 9.70765 339.628 9.38574 342.595 9.38574Z" fill="black"/>
<path d="M205.522 119.669C208.396 119.669 211.317 119.347 214.145 118.703C235.208 113.966 248.499 92.972 243.763 71.9087C239.784 54.1796 223.734 41.3254 205.591 41.3254C202.717 41.3254 199.796 41.6474 196.968 42.2912C186.758 44.5907 178.066 50.7074 172.455 59.5604C166.868 68.3905 165.051 78.8991 167.327 89.0859C171.306 106.815 187.356 119.669 205.499 119.669H205.522Z" fill="black"/>
<path d="M205.591 42.475C202.831 42.475 200.026 42.774 197.221 43.4178C176.732 48.0168 163.855 68.3673 168.454 88.8328C172.432 106.516 188.115 118.519 205.499 118.519C208.258 118.519 211.064 118.22 213.869 117.576C234.357 112.977 247.235 92.6269 242.636 72.1615C238.658 54.4784 222.975 42.475 205.591 42.475ZM205.591 40.1755C224.263 40.1755 240.796 53.4206 244.889 71.6556C247.258 82.1642 245.372 92.9489 239.623 102.055C233.875 111.161 224.907 117.461 214.398 119.83C211.478 120.497 208.488 120.819 205.522 120.819C186.85 120.819 170.317 107.574 166.224 89.3386C163.855 78.83 165.741 68.0454 171.489 58.9394C177.238 49.8334 186.206 43.5328 196.715 41.1643C199.635 40.4975 202.624 40.1755 205.591 40.1755Z" fill="black"/>
<path d="M197.221 43.3954C198.141 43.1885 199.038 43.0735 199.957 42.9355C211.915 59.101 225.551 77.9108 225.551 77.9108L206.603 85.5451L227.022 111.851C223.159 114.496 218.767 116.496 213.915 117.577C210.397 118.359 206.902 118.612 203.476 118.428L180.251 85.4072L201.314 74.1856L181.975 50.7538C186.321 47.3046 191.472 44.7062 197.244 43.4184L197.221 43.3954Z" fill="white"/>
<path d="M321.301 18.2159C325.118 15.6405 329.441 13.6859 334.224 12.6052C336.248 12.1453 338.271 11.9153 340.295 11.7773C351.884 27.4829 364.463 44.821 364.463 44.821L345.515 52.4554L366.325 79.2904C361.933 82.8086 356.736 85.453 350.896 86.7638C348.596 87.2926 346.274 87.5456 343.997 87.6376L319.14 52.2944L340.203 41.0729L321.301 18.1699V18.2159Z" fill="white"/>
</svg>
