<svg width="284" height="513" viewBox="0 0 284 513" fill="none" xmlns="http://www.w3.org/2000/svg">
<path d="M251.233 95.1857C253.727 95.0643 256.829 96.2038 258.361 97.7824C261.163 100.678 262.657 108.394 258.902 109.87C253.634 111.953 245.293 102.014 247.852 96.9698C248.45 95.7929 249.73 95.2604 251.233 95.1857ZM41.2885 106.114C48.8826 105.722 56.2432 107.338 53.5064 111.551C52.0398 113.811 28.7158 128.691 22.4574 126.646C16.3952 124.665 24.036 112.139 29.5097 108.861C32.0971 107.31 36.7395 106.348 41.2885 106.105V106.114ZM129.625 94.2796C134.641 93.9901 141.273 100.276 140.488 105.115C139.648 110.327 129.961 114.297 125.805 111.046C121.442 107.637 122.946 96.5588 128.13 94.5972C128.607 94.4197 129.102 94.317 129.625 94.289V94.2796ZM217.364 80.0535C226.275 79.2595 237.605 93.0373 233.906 101.183C229.964 109.86 210.498 110.776 205.361 102.742C200.746 95.5313 208.835 80.8008 217.364 80.0442V80.0535ZM97.0254 85.3404C97.3617 85.3404 97.6979 85.3404 98.0342 85.3778C107.226 86.1998 114.297 102.724 109.477 110.589C104.283 119.07 84.4993 120.64 79.6794 111.943C74.626 102.817 86.5263 85.5366 97.0161 85.3311L97.0254 85.3404ZM165.662 76.065C172.761 75.8501 181.84 84.8921 181.485 91.907C181.112 99.0902 169.763 107.049 163.401 103.695C155.462 99.5105 154.715 80.7261 162.776 76.7655C163.672 76.3265 164.653 76.1023 165.662 76.0743V76.065ZM72.2628 57.8129C73.776 57.6915 73.0754 60.746 71.1886 66.3505C67.555 77.1392 66.378 94.4851 50.1717 94.8307C44.3897 94.9522 35.0395 93.6631 45.3238 84.0514C52.9085 76.9523 59.2697 68.611 66.9292 61.596C69.6473 59.102 71.3567 57.8877 72.2628 57.8129ZM189.462 41.4758C195.179 41.0555 203.025 49.1166 202.381 54.8519C201.932 58.8498 195.3 61.9976 191.639 60.3256C185.978 57.7382 181.896 45.5111 187.165 42.2044C187.865 41.7654 188.64 41.5319 189.453 41.4758H189.462ZM120.704 40.5884C128.037 40.0093 138.275 47.5754 137.35 54.5063C136.182 63.296 118.976 69.7599 112.419 63.7911C106.609 58.5042 111.139 43.6896 118.528 41.0461C119.21 40.8033 119.938 40.6538 120.695 40.5978L120.704 40.5884ZM161.954 24.9145C164.27 24.7744 166.484 25.2321 168.007 26.4651C174.003 31.3316 173.63 47.2858 166.25 49.565C158.778 51.8722 149.222 38.7016 151.576 31.2476C152.706 27.6794 157.517 25.1854 161.944 24.9145H161.954ZM97.1655 27.5392C100.678 27.2403 105.143 28.9684 105.638 32.0135C106.889 39.589 93.9149 51.0408 87.7219 46.5105C82.3976 42.6154 88.9268 30.7899 94.9424 28.081C95.5962 27.7915 96.3528 27.614 97.1655 27.5486V27.5392ZM133.968 0.151895C112.998 1.45027 97.5672 10.0905 83.696 26.1194L12.911 105.022C3.24323 114.717 -5.07942 135.052 5.60651 149.232C33.9467 122.171 68.0127 125.749 84.5647 125.702C103.695 126.683 115.772 130.27 141.955 128.645C168.137 127.019 179.683 121.966 198.542 118.622C214.963 116.623 248.328 108.851 279.798 132.203C288.644 116.819 277.874 97.6704 267.076 89.2356L187.071 19.7023C171.323 5.51354 154.939 -1.1465 133.968 0.161217V0.151895Z" fill="#FF18B2"/>
<path d="M126.897 140.433L128.121 155.107C129.681 180.244 123.983 181.29 117.911 189.295C105.983 205.016 118.453 217.504 129.55 211.153C135.229 208.49 139.965 206.211 146.746 205.819C153.518 205.371 158.506 207.043 164.466 208.985C176.263 213.917 187.089 199.981 173.312 185.858C166.297 178.665 160.515 178.329 158.945 153.202L158.348 138.49L142.73 141.143L126.906 140.442L126.897 140.433Z" fill="black"/>
<path d="M226.2 129.541C218.84 129.943 211.6 131.092 204.371 132.185C214.842 138.313 227.536 142.254 242.453 144.552C249.478 145.636 246.89 150.792 241.491 150.885C216.691 151.296 175.946 125.534 189.024 138.994C194.32 144.44 199.448 146.056 205.725 150.605C212.469 155.49 208.07 158.75 202.568 156.966C192.059 153.575 176.03 138.639 172.892 142.236C169.894 145.673 176.694 151.315 179.356 153.491C183.69 157.041 178.328 165.195 173.742 157.293C172.574 164.476 175.956 168.698 180.925 171.902C209.573 169.754 238.063 166.643 264.47 150.409C273.811 147.513 271.372 141.311 264.619 137.649C251.112 130.317 238.493 128.888 226.219 129.551L226.2 129.541ZM58.4665 139.966C46.202 140.825 33.8627 143.805 21.3647 152.753C15.1156 157.228 13.4716 163.682 23.0927 165.401C51.3021 178.254 79.9598 177.806 108.655 176.395C113.185 172.612 116.015 167.998 113.97 161.011C110.392 169.418 104.059 162.001 107.926 157.938C110.29 155.453 116.342 149.008 112.942 145.972C109.383 142.787 95.3255 159.591 85.3214 164.261C80.0812 166.709 75.308 164.019 81.3983 158.339C87.0588 153.052 91.9534 150.82 96.5305 144.758C107.842 129.794 70.6003 160.394 45.9404 163.056C40.5694 163.636 37.3655 158.844 44.1937 156.891C58.7094 152.753 70.8244 147.27 80.4548 139.9C73.1409 139.714 65.8177 139.471 58.4665 139.985V139.966Z" fill="#E10094"/>
<path d="M137.78 469.259C140.171 469.567 146.429 491.443 176.637 493.573C196.216 494.956 131.699 512.871 136.238 474.975C136.743 470.772 137.107 469.166 137.78 469.25V469.259ZM149.988 219.494C149.231 219.494 148.447 219.513 147.606 219.569C140.909 219.989 137.359 221.782 132.988 225.874C139.405 286.16 144.589 424.367 128.756 456.63C117.024 480.533 127.439 514.618 165.783 512.236C204.137 509.854 210.246 474.742 195.646 452.473C175.937 422.415 163.981 284.628 162.888 224.015C158.656 220.942 155.256 219.522 149.988 219.494Z" fill="black"/>
</svg>
