<svg width="299" height="299" viewBox="0 0 299 299" fill="none" xmlns="http://www.w3.org/2000/svg">
<path d="M298.485 138.275C290.986 48.7654 211.519 -5.88496 137.391 0.505606C50.1765 8.02486 -6.51156 83.8287 0.600498 160.879C6.88091 250.864 90.6385 304.536 160.665 298.335C244.551 290.908 305.176 218.128 298.487 138.275H298.485ZM166.384 71.6129C167.134 68.5205 168.136 65.3701 169.679 62.6113C175.406 52.3733 186.297 51.0108 194.786 59.1534C201.373 65.472 204.884 73.3768 206.966 82.0287C207.744 85.255 208.191 88.5611 208.79 91.8293C209.313 100.447 208.393 108.724 203.728 116.217C200.375 121.601 195.391 124.747 189.149 123.295C185.362 122.414 181.672 119.883 178.636 117.284C171.957 111.57 168.945 103.682 166.981 95.3253C165.132 87.4464 164.466 79.5357 166.386 71.6129H166.384ZM78.0676 78.8305C79.0055 75.82 80.4703 72.7935 82.3781 70.2924C87.9111 63.0428 94.5682 62.1838 102.231 67.1201C110.097 72.1862 114.101 79.8792 116.786 88.3774C118.117 92.5865 118.81 96.9953 119.794 101.312C120.014 108.788 119.395 116.023 116.584 122.969C112.039 134.192 101.454 137.169 91.7126 129.883C85.6786 125.37 82.4502 118.914 79.9072 112.094C75.8472 101.212 74.5607 90.0934 78.0716 78.8305H78.0676ZM35.4554 173.692C34.5897 170.022 34.1869 166.239 33.217 162.603C32.8562 161.249 31.744 159.688 30.5337 159.041C27.2151 157.271 23.4396 156.296 20.2533 154.347C15.4839 151.428 15.6021 144.914 20.2894 141.851C21.3776 141.14 23.0729 140.696 24.3033 140.968C29.2852 142.067 34.245 143.337 39.1166 144.848C43.1486 146.098 47.0303 147.824 51.0141 149.245C55.0541 150.687 57.4028 154.882 56.3827 159.047C55.5471 162.453 51.4029 164.878 47.381 164.315C43.9402 163.832 43.6997 164.069 44.6856 167.555C49.924 186.1 60.6772 201.128 74.8412 213.855C101.941 238.205 133.563 246.591 169.34 240.125C217.122 231.489 254.3 188.725 256.196 140.117C256.304 137.344 256.336 134.568 256.354 131.793C256.368 129.807 255.639 129.184 253.655 130.171C248.671 132.652 244.865 131.939 242.493 128.251C239.978 124.339 240.986 119.917 245.336 116.603C251.709 111.75 258.145 106.984 264.586 102.223C267.724 99.904 272.654 100.228 274.981 102.809C277.522 105.625 277.758 110.733 275.075 113.488C272.762 115.861 270.003 117.801 267.454 119.947C265.662 121.453 264.851 122.999 265.39 125.678C275.814 177.536 248.45 232.214 201.217 254.029C188.153 260.062 174.36 263.436 160.026 264.648C99.6823 270.134 48.3509 228.414 35.4534 173.69L35.4554 173.692Z" fill="#EE0EAA"/>
</svg>
