<svg width="296" height="313" viewBox="0 0 296 313" fill="none" xmlns="http://www.w3.org/2000/svg">
<path d="M136.477 76.2579C143.59 76.0202 150.138 77.6841 154.312 81.8383C165.259 92.7387 154.764 120.935 140.163 126.006C125.156 131.213 98.4426 115.094 100.637 99.3492C101.609 92.3539 107.524 86.2754 115.249 82.11C121.684 78.6349 129.363 76.4956 136.477 76.2579ZM199.652 48.4804C209.321 48.571 218.697 52.1931 220.145 59.528C222.734 72.5791 197.13 83.7852 184.983 78.3746C177.802 75.1712 174.216 61.3844 179.374 55.4418C180.493 54.1514 181.918 53.0194 183.581 52.1026C187.935 49.6463 193.839 48.4351 199.64 48.4804H199.652ZM86.2057 37.8063C96.6783 37.8063 109.074 43.6697 109.311 52.1026C109.616 62.9238 88.3884 69.0022 78.9789 63.6596C72.3741 59.9129 69.3093 46.2166 75.0206 41.2021C75.5861 40.7041 76.2081 40.2626 76.8867 39.8891C79.4313 38.4629 82.7111 37.8063 86.2057 37.8063ZM109.571 4.49375C108.248 5.00312 106.913 5.53512 105.579 6.13504C51.9378 30.2338 54.5164 46.9297 40.1307 72.964C38.6152 75.7032 36.8735 79.0537 35.2223 82.1326C46.1926 93.1915 53.114 110.702 47.5045 122.293C41.9515 133.794 24.908 140.28 9.00684 140.268C-2.77769 175.041 -4.94912 208.648 26.0955 218.009C51.3837 225.638 79.6462 224.042 109.537 217.522L114.547 200.317L80.6867 213.991L107.773 191.556L67.8616 212.157L94.473 184.074L51.3837 209.056C58.6331 198.415 67.8503 187.413 72.9622 177.169C56.2015 191.771 25.7223 222.616 33.5146 181.255C35.9914 168.091 58.1015 154.531 76.423 149.969C120.869 138.899 153.611 171.238 202.162 134.699C221.004 120.516 240.841 101.217 271.535 99.3152C281.533 98.704 277.382 110.102 266.174 114.087L230.47 126.798L273.605 126.436L224.714 144.423L256.753 143.585L219.5 159.443L232.89 169.495C260.825 154.972 309.003 118.603 292.005 86.932C274.385 54.0948 227.371 51.4687 193.454 23.9402C192.798 23.4082 181.511 13.2775 164.536 6.37275C156.268 16.8544 141.351 25.3552 130.302 24.3591C121.548 23.5667 112.15 13.9567 109.583 4.52771L109.571 4.49375ZM151.903 2.24121C156.359 3.32786 160.566 4.73145 164.479 6.31615C160.566 4.73145 156.37 3.31654 151.903 2.24121ZM134.463 0C133.875 0 133.265 0.0339578 132.665 0.0339578C133.615 0.0113193 134.565 0.0113193 135.504 0.0339578C135.153 0.0339578 134.814 0 134.463 0Z" fill="#EE0EAA"/>
<path d="M136.477 76.2579C143.59 76.0202 150.138 77.6841 154.312 81.8383C165.259 92.7387 154.764 120.935 140.163 126.006C125.156 131.213 98.4426 115.094 100.637 99.3492C101.609 92.3539 107.524 86.2754 115.249 82.11C121.684 78.6349 129.363 76.4956 136.477 76.2579ZM199.652 48.4804C209.321 48.571 218.697 52.1931 220.145 59.528C222.734 72.5791 197.13 83.7852 184.983 78.3746C177.802 75.1712 174.216 61.3844 179.374 55.4418C180.493 54.1514 181.918 53.0194 183.581 52.1026C187.935 49.6463 193.839 48.4351 199.64 48.4804H199.652ZM86.2057 37.8063C96.6783 37.8063 109.074 43.6697 109.311 52.1026C109.616 62.9238 88.3884 69.0022 78.9789 63.6596C72.3741 59.9129 69.3093 46.2166 75.0206 41.2021C75.5861 40.7041 76.2081 40.2626 76.8867 39.8891C79.4313 38.4629 82.7111 37.8063 86.2057 37.8063ZM109.571 4.49375C108.248 5.00312 106.913 5.53512 105.579 6.13504C51.9378 30.2338 54.5164 46.9297 40.1307 72.964C38.6152 75.7032 36.8735 79.0537 35.2223 82.1326C46.1926 93.1915 53.114 110.702 47.5045 122.293C41.9515 133.794 24.908 140.28 9.00684 140.268C-2.77769 175.041 -4.94912 208.648 26.0955 218.009C51.3837 225.638 79.6462 224.042 109.537 217.522L114.547 200.317L80.6867 213.991L107.773 191.556L67.8616 212.157L94.473 184.074L51.3837 209.056C58.6331 198.415 67.8503 187.413 72.9622 177.169C56.2015 191.771 25.7223 222.616 33.5146 181.255C35.9914 168.091 58.1015 154.531 76.423 149.969C120.869 138.899 153.611 171.238 202.162 134.699C221.004 120.516 240.841 101.217 271.535 99.3152C281.533 98.704 277.382 110.102 266.174 114.087L230.47 126.798L273.605 126.436L224.714 144.423L256.753 143.585L219.5 159.443L232.89 169.495C260.825 154.972 309.003 118.603 292.005 86.932C274.385 54.0948 227.371 51.4687 193.454 23.9402C192.798 23.4082 181.511 13.2775 164.536 6.37275C156.268 16.8544 141.351 25.3552 130.302 24.3591C121.548 23.5667 112.15 13.9567 109.583 4.52771L109.571 4.49375ZM151.903 2.24121C156.359 3.32786 160.566 4.73145 164.479 6.31615C160.566 4.73145 156.37 3.31654 151.903 2.24121ZM134.463 0C133.875 0 133.265 0.0339578 132.665 0.0339578C133.615 0.0113193 134.565 0.0113193 135.504 0.0339578C135.153 0.0339578 134.814 0 134.463 0Z" fill="#EE0EAA"/>
<path d="M119.761 161.3C126.942 188.986 122.803 207.595 115.712 223.974C106.223 245.877 132.744 233.698 141.984 213.821C163.427 235.939 179.43 228.276 175.46 203.645C191.904 215.315 215.846 217.703 194.223 185.783C215.767 194.397 244.663 191.839 211.402 166.484C169.296 179.761 140.242 167.536 119.749 161.311L119.761 161.3Z" fill="#EE0EAA"/>
<path d="M149.019 234.173C130.799 269.93 177.474 331.915 223.73 306.503C267.95 282.212 250.409 232.509 212.737 209.395C212.986 214.658 210.43 219.379 206.189 221.586C211.154 228.434 213.958 235.044 211.029 240.998L198.374 226.804C192.097 226.612 187.652 224.087 183.061 221.744C181.794 227.777 180.086 233.652 174.669 238.203L178.254 255.747C171.638 254.231 168.381 248.695 166.515 241.519C159.955 241.055 154.233 238.338 149.019 234.173Z" fill="#EE0EAA"/>
</svg>
