<svg width="345" height="285" viewBox="0 0 345 285" fill="none" xmlns="http://www.w3.org/2000/svg">
<g clip-path="url(#clip0_2012_4553)">
<path d="M173.869 149.203L261.305 95.4708L291.882 145.411C294.359 149.458 296.244 153.751 297.516 158.237C300.161 157.287 302.781 156.401 305.36 155.576C303.908 150.591 301.779 145.716 298.939 141.077L260.579 78.4247L230.002 28.4842C212.801 0.387455 176.125 -8.41774 148.082 8.81531C120.041 26.0484 111.252 62.7937 128.453 90.8871L166.813 153.539L168.784 156.758H178.496L173.87 149.203H173.869ZM157.744 26.4661C156.711 24.7799 157.239 22.5748 158.922 21.5405C168.364 15.7388 179.486 13.965 190.244 16.5474C201.002 19.1299 210.115 25.7603 215.906 35.2191C216.939 36.9053 216.411 39.1104 214.727 40.1448C214.144 40.5036 213.498 40.6737 212.861 40.6737C211.659 40.6737 210.485 40.0656 209.811 38.9639C205.019 31.1357 197.478 25.6491 188.578 23.5114C179.678 21.3754 170.474 22.8426 162.66 27.6436C160.977 28.678 158.776 28.149 157.744 26.4628V26.4661Z" fill="#EE0EAA"/>
<path d="M204.01 281.19C203.762 280.949 203.513 280.705 203.267 280.456L203.264 280.452C203.257 280.446 203.252 280.439 203.245 280.432C203.01 280.193 202.775 279.947 202.541 279.699C202.448 279.6 202.356 279.497 202.262 279.396C202.117 279.239 201.974 279.083 201.83 278.923C201.712 278.791 201.596 278.657 201.478 278.524C201.362 278.39 201.246 278.259 201.132 278.124C201.001 277.971 200.87 277.813 200.738 277.656C200.641 277.54 200.545 277.424 200.449 277.306C200.306 277.13 200.162 276.952 200.019 276.773C199.938 276.674 199.859 276.573 199.78 276.47C199.625 276.273 199.471 276.073 199.316 275.87C199.254 275.788 199.19 275.705 199.128 275.621C198.959 275.399 198.793 275.175 198.627 274.947C198.584 274.89 198.544 274.833 198.502 274.775C198.317 274.521 198.132 274.263 197.949 274.002C195.793 274.275 193.612 274.415 191.408 274.415H132.929V171.65H191.408C198.336 171.65 205.051 173.008 211.368 175.685C215.02 177.233 218.451 179.183 221.625 181.51C222.826 181.857 224.045 182.219 225.279 182.601C225.297 182.606 225.316 182.613 225.334 182.618C225.94 182.805 226.547 182.996 227.157 183.191C227.192 183.203 227.228 183.213 227.263 183.225C227.841 183.41 228.422 183.599 229.003 183.791C229.047 183.804 229.089 183.819 229.131 183.833C229.715 184.026 230.301 184.225 230.89 184.426C230.987 184.459 231.085 184.493 231.182 184.527C231.732 184.715 232.282 184.907 232.835 185.105C232.881 185.121 232.928 185.137 232.973 185.153C233.547 185.357 234.122 185.566 234.697 185.778C234.828 185.827 234.959 185.874 235.088 185.923C235.669 186.139 236.25 186.356 236.834 186.58H236.839L236.844 186.584C237.263 186.745 237.676 186.907 238.09 187.069C238.498 187.23 238.904 187.392 239.307 187.556C228.455 172.875 211.042 163.355 191.408 163.355H132.929H59.5666C26.6676 163.357 0 190.074 0 223.032C0 255.991 26.6676 282.71 59.5649 282.71H191.408C195.785 282.71 200.051 282.233 204.16 281.335C204.11 281.288 204.061 281.239 204.012 281.19H204.01ZM57.9289 186.082C39.0245 186.082 23.6444 201.49 23.6444 220.43C23.6444 222.407 22.0436 224.011 20.0696 224.011C18.0956 224.011 16.4949 222.407 16.4949 220.43C16.4949 209.334 20.8027 198.906 28.6248 191.071C36.4468 183.235 46.8532 178.919 57.9306 178.919C59.9046 178.919 61.5053 180.523 61.5053 182.5C61.5053 184.478 59.9046 186.082 57.9306 186.082H57.9289Z" fill="#EE0EAA"/>
<path d="M313.741 283.023C325.738 279.558 334.627 270.247 342.907 253.685C347.025 245.509 349.695 234.6 352.626 223.039C355.508 211.463 358.65 199.233 362.625 188.086C370.013 166.002 381.168 148.78 381.116 148.716C381.039 148.984 365.589 148.615 339.299 153.789C326.388 156.234 310.765 160.17 295.47 166.03C280.24 171.892 265.337 179.679 255.322 189.862C254.129 191.041 252.992 192.217 251.909 193.391C252.341 193.62 252.767 193.852 253.189 194.085C253.311 194.152 253.433 194.22 253.554 194.287C253.858 194.455 254.159 194.626 254.458 194.796C254.593 194.873 254.727 194.949 254.862 195.027C255.161 195.198 255.459 195.372 255.753 195.545C255.866 195.613 255.98 195.678 256.093 195.744C256.896 196.223 257.683 196.706 258.45 197.195C258.563 197.267 258.675 197.339 258.788 197.412C259.06 197.587 259.329 197.762 259.597 197.937C259.721 198.02 259.844 198.101 259.967 198.183C260.232 198.36 260.496 198.539 260.757 198.719C260.863 198.792 260.969 198.864 261.075 198.936C261.436 199.186 261.794 199.437 262.146 199.689C262.146 199.689 262.147 199.689 262.149 199.691C262.499 199.942 262.842 200.193 263.182 200.446C263.286 200.523 263.387 200.601 263.491 200.678C263.73 200.858 263.967 201.039 264.202 201.219C264.315 201.307 264.429 201.394 264.542 201.482C264.774 201.664 265.004 201.846 265.231 202.029C265.329 202.108 265.428 202.186 265.524 202.265C265.843 202.525 266.158 202.784 266.467 203.047C266.469 203.048 266.47 203.05 266.472 203.052C266.778 203.311 267.079 203.572 267.377 203.833C267.469 203.916 267.562 203.999 267.654 204.081C267.861 204.266 268.068 204.452 268.27 204.637C268.37 204.73 268.471 204.822 268.571 204.915C268.771 205.102 268.969 205.289 269.166 205.478C269.253 205.562 269.341 205.644 269.426 205.729C269.704 205.998 269.976 206.268 270.244 206.537C272.804 209.066 275.103 211.635 277.137 214.234C277.544 214.754 277.941 215.275 278.326 215.797C278.905 216.58 279.46 217.367 279.989 218.157C282.996 222.63 285.229 227.185 286.666 231.787C286.782 232.161 286.891 232.533 286.997 232.907C287.013 232.961 287.028 233.017 287.044 233.071C287.15 233.451 287.251 233.832 287.347 234.214C297.797 223.536 309.608 214.396 321.645 206.685C300.55 226.927 284.511 251.766 279.19 280.227C287.308 283.092 295.018 284.591 302.071 284.591C306.204 284.591 310.112 284.076 313.746 283.02L313.741 283.023Z" fill="#EE0EAA"/>
<path d="M265.586 211.207C257.826 203.318 246.283 197.287 234.485 192.744C222.636 188.204 210.533 185.155 200.531 183.26C180.166 179.252 168.197 179.539 168.137 179.33C168.095 179.38 176.737 192.72 182.461 209.829C185.54 218.464 187.974 227.939 190.207 236.906C192.477 245.863 194.547 254.315 197.737 260.647C204.152 273.478 211.039 280.691 220.332 283.375C223.147 284.194 226.175 284.593 229.377 284.593C234.841 284.593 240.812 283.431 247.102 281.212C242.981 259.164 230.555 239.922 214.213 224.24C232.381 235.877 249.878 251.719 260.228 272.383C260.347 272.622 261.144 274.295 261.144 274.295C261.144 274.295 263.416 273.478 269.104 269.024C271.085 267.473 272.865 265.739 274.427 263.853C277.008 260.734 278.999 257.197 280.334 253.361C284.427 241.808 281.286 226.693 265.59 211.205L265.586 211.207Z" fill="#EE0EAA"/>
</g>
<defs>
<clipPath id="clip0_2012_4553">
<rect width="344.3" height="284.595" fill="white"/>
</clipPath>
</defs>
</svg>
