<svg width="435" height="331" viewBox="0 0 435 331" fill="none" xmlns="http://www.w3.org/2000/svg">
<path d="M132.19 46.9264C132.744 45.1362 134.342 43.2406 135.848 42.5645C138.608 41.3298 144.433 42.2522 144.512 45.279C144.632 49.5287 135.485 52.8661 132.583 49.7686C131.905 49.0454 131.858 48.0064 132.19 46.9264ZM86.1134 197.814C87.7822 192.357 90.8078 187.579 93.0781 190.588C94.2969 192.202 98.8173 212.466 95.771 216.356C92.8211 220.125 85.9432 211.527 85.0329 206.826C84.602 204.603 85.1127 201.082 86.1068 197.811L86.1134 197.814ZM100.396 132.472C101.477 128.86 107.61 125.793 110.822 127.586C114.284 129.514 114.602 137.364 111.244 139.463C107.722 141.666 100.293 137.767 100.238 133.608C100.234 133.227 100.289 132.851 100.403 132.475L100.396 132.472ZM112.84 66.9403C114.562 60.4513 127.183 55.989 131.981 60.6848C137.092 65.6884 132.751 79.6537 125.768 81.2195C119.5 82.6268 111.182 73.1473 112.833 66.9379L112.84 66.9403ZM85.7394 153.177C85.8255 152.94 85.9116 152.703 86.0242 152.475C88.9587 146.202 102.426 145.448 106.738 150.863C111.39 156.699 107.429 171.056 100.06 172.227C92.3283 173.454 83.1879 160.633 85.7304 153.181L85.7394 153.177ZM96.7808 102.387C98.4479 97.3245 107.152 93.2367 112.009 95.2843C116.98 97.3881 119.686 107.432 115.691 111.06C110.705 115.588 97.2639 111.303 96.5355 104.602C96.4555 103.857 96.5487 103.108 96.7874 102.389L96.7808 102.387ZM59.9786 163.591C60.2806 162.493 62.2556 163.769 65.7254 166.536C72.4045 171.863 84.3382 177.137 80.43 188.657C79.0344 192.767 75.7297 199.032 71.5847 189.315C68.5204 182.146 64.2664 175.522 61.2806 168.323C60.2178 165.766 59.7991 164.249 59.9786 163.591ZM78.4803 76.7375C79.6483 72.5976 87.3445 69.1283 91.2248 71.0522C93.9299 72.3927 94.4512 77.8771 92.3338 80.0315C89.0586 83.3614 79.3882 83.1081 78.4055 78.545C78.2753 77.9384 78.3092 77.3317 78.4779 76.7441L78.4803 76.7375ZM60.2392 125.01C61.7093 119.689 69.6689 114.406 74.3208 116.834C80.2216 119.91 80.373 133.702 74.4829 136.798C69.2653 139.542 59.9762 132.551 60.0045 126.662C60.0079 126.119 60.0891 125.567 60.2435 125.019L60.2392 125.01ZM59.751 91.8984C60.2457 90.2285 61.1357 88.7842 62.3955 88.0261C67.3645 85.043 78.5223 89.3938 78.2394 95.1828C77.9524 101.045 66.2143 104.411 61.5595 100.841C59.3322 99.1295 58.8054 95.0974 59.7487 91.905L59.751 91.8984ZM45.0044 138.27C45.6934 135.716 48.0561 133.009 50.3309 133.44C55.995 134.498 60.7488 146.584 55.9667 149.791C51.8552 152.549 45.1866 144.914 44.817 139.977C44.7803 139.442 44.8489 138.862 45.011 138.272L45.0044 138.27ZM35.1149 105.294C30.6584 120.418 32.7996 133.516 40.5522 147.407L78.0725 217.55C82.4348 226.853 94.6462 237.934 107.385 234.029C95.5584 207.106 106.809 183.994 111.017 172.306C116.61 159.064 122.234 151.464 127.795 132.579C133.356 113.695 132.75 104.257 135.222 90.0974C138.019 78.0023 141.085 52.4766 165.619 36.2618C157.034 26.081 140.768 28.7721 132.052 34.2277L62.5094 72.8461C48.4666 80.3196 39.5714 90.1699 35.1215 105.297L35.1149 105.294Z" fill="black"/>
<path d="M132.252 146.219L142.916 149.116C161.046 154.455 160.324 158.742 164.415 165.076C172.448 177.517 184.452 171.921 182.815 162.466C182.392 157.778 181.998 153.854 183.458 148.97C184.877 144.078 187.334 140.988 190.231 137.282C196.733 130.224 189.676 119.018 176.184 125.118C169.313 128.223 167.595 132.215 149.469 126.885L138.939 123.538L136.809 135.234L132.261 146.215L132.252 146.219Z" fill="black"/>
<path d="M150.01 73.3854C148.407 78.6802 147.363 84.0807 146.282 89.4604C153.286 83.6443 159.319 75.7001 164.761 65.7666C167.325 61.0895 170.299 64.2355 168.982 68.0677C162.919 85.666 134.309 107.806 147.153 102.03C152.351 99.6894 154.805 96.4862 159.622 93.224C164.795 89.7185 165.968 93.657 163.3 97.0807C158.216 103.624 143.574 111.104 145.307 114.239C146.963 117.235 152.685 113.884 154.902 112.563C158.516 110.416 162.894 116.287 156.145 117.497C160.913 120.161 164.757 118.858 168.29 116.173C174.114 95.4152 179.219 74.5228 174.533 51.7375C174.883 44.4069 169.884 44.5377 165.571 48.3632C156.939 56.012 152.698 64.5471 150.021 73.3746L150.01 73.3854ZM114.391 194.369C111.855 203.24 110.796 212.707 113.906 223.815C115.461 229.37 119.592 232.183 123.27 225.837C139.562 209.232 146.588 188.903 152.945 168.301C151.437 164.136 148.907 160.958 143.455 160.611C148.468 165.288 141.614 167.855 139.739 164.086C138.591 161.783 135.596 155.862 132.584 157.483C129.425 159.177 137.677 173.398 138.408 181.651C138.792 185.974 135.671 188.652 133.226 182.901C130.947 177.554 130.626 173.529 127.523 168.748C119.865 156.935 131.909 191.044 127.469 209.12C126.502 213.057 122.301 214.089 122.673 208.773C123.473 197.474 122.709 187.524 119.978 178.843C117.972 183.954 115.925 189.057 114.404 194.374L114.391 194.369Z" fill="black"/>
<path d="M366.982 222.786C367.812 221.178 384.846 222.368 394.087 201.606C400.078 188.15 396.187 238.248 370.619 225.337C367.784 223.905 366.744 223.236 366.975 222.783L366.982 222.786ZM193.934 150.187C193.741 150.721 193.553 151.279 193.377 151.886C191.958 156.718 192.313 159.681 194.079 163.813C238.247 174.731 337.061 206.482 355.762 225.915C369.617 240.314 396.327 241.7 404.471 214.043C412.616 186.38 389.414 173.075 369.967 177.669C343.715 183.87 243.462 157.004 200.428 142.246C197.176 144.444 195.304 146.478 193.934 150.187Z" fill="black"/>
</svg>
