<svg width="1319" height="1383" viewBox="0 0 1319 1383" fill="none" xmlns="http://www.w3.org/2000/svg">
<path d="M0.328326 992.445C-4.09972 1129.1 35.5544 1289.95 162.415 1341.11C229.265 1368.05 304.377 1357.22 376.382 1354.09C513.42 1348.14 649.831 1371.92 786.67 1381.4C923.51 1390.87 1051.95 1355.58 1154.5 1264.5C1306.5 1129.5 1339.69 1044.5 1306.5 849C1274.5 660.5 1108.06 602.157 1019.5 423.5C978.888 341.536 1034.94 325.205 1007.21 238.055C979.489 150.906 931.97 62.7995 849.787 22.5439C652.606 -73.9509 418.019 162.531 290.828 293.733C113.64 476.551 8.52352 739.518 0.328326 992.445Z" fill="#FF18B2"/>
</svg>
