<svg width="593" height="660" viewBox="0 0 593 660" fill="none" xmlns="http://www.w3.org/2000/svg">
<path d="M564.906 634.982V296.482H27.6029V634.982C27.6029 640.939 32.4192 645.749 38.3966 645.749H554.139C560.075 645.749 564.906 640.942 564.906 634.982Z" fill="white" stroke="black" stroke-width="9.25776"/>
<path d="M569.535 291.853V634.982C569.535 643.506 562.624 650.378 554.139 650.378H38.3966C29.8731 650.378 22.974 643.506 22.974 634.982V291.853H569.535Z" fill="white" stroke="black" stroke-width="9.25776" stroke-linecap="round" stroke-linejoin="round"/>
<path d="M249.785 294.842H340.693V650.379H249.785V294.842Z" fill="white" stroke="black" stroke-width="9.25776" stroke-linecap="round" stroke-linejoin="round"/>
<path d="M14.25 284.15V284.364C14.3633 288.488 17.7524 291.818 21.9381 291.818H570.572C574.829 291.818 578.263 288.373 578.263 284.15V197.165C578.263 192.937 574.824 189.486 570.572 189.486L21.941 189.486C17.6891 189.486 14.25 192.937 14.25 197.165V284.15Z" fill="white" stroke="black" stroke-width="9.25776"/>
<path d="M9.61819 284.15C9.61819 290.935 15.1298 296.447 21.9381 296.447H570.572C577.38 296.447 582.892 290.935 582.892 284.15V197.165C582.892 190.38 577.38 184.857 570.572 184.857L21.941 184.857C15.1327 184.857 9.62112 190.38 9.62112 197.165V284.15H9.61819Z" fill="white" stroke="black" stroke-width="9.25776" stroke-linecap="round" stroke-linejoin="round"/>
<path d="M452.36 29.4453L452.359 29.4449C440.79 19.877 430.018 15.3813 420.08 14.4402C410.156 13.5004 400.608 16.0615 391.396 21.3945C372.755 32.1853 356.004 54.0292 341.876 79.1184C327.831 104.062 316.735 131.558 309.138 152.885C305.345 163.534 302.435 172.614 300.476 179.024C300.155 180.072 299.86 181.049 299.591 181.949C301.045 181.656 302.695 181.318 304.521 180.934C312.277 179.304 323.216 176.852 335.932 173.569C361.406 166.991 393.832 157.119 422.045 143.905C436.15 137.299 449.075 129.915 459.517 121.777C469.986 113.617 477.709 104.891 481.779 95.6742C485.781 86.6133 486.368 76.8397 482.173 66.0611C477.917 55.1224 468.628 42.8954 452.36 29.4453Z" fill="white" stroke="black" stroke-width="9.25776"/>
<path d="M293.051 187.921C293.051 187.921 358.409 -54.2612 455.309 25.8778C588.185 135.738 293.051 187.921 293.051 187.921Z" fill="white" stroke="black" stroke-width="9.25776" stroke-linecap="round" stroke-linejoin="round"/>
<path d="M295.119 184.578L398.411 92.8506" stroke="black" stroke-width="9.25776" stroke-linecap="round" stroke-linejoin="round"/>
<path d="M137.096 29.445L137.096 29.4451C120.83 42.8956 111.542 55.1227 107.287 66.0614C103.094 76.84 103.682 86.6138 107.685 95.675C111.757 104.891 119.481 113.618 129.952 121.778C140.395 129.916 153.322 137.3 167.428 143.906C195.643 157.12 228.071 166.991 253.547 173.569C266.264 176.853 277.204 179.304 284.96 180.934C286.787 181.318 288.436 181.656 289.89 181.949C289.621 181.049 289.326 180.072 289.006 179.024C287.046 172.614 284.136 163.535 280.342 152.886C272.743 131.558 261.645 104.062 247.597 79.1187C233.467 54.0295 216.713 32.1856 198.069 21.3946C188.855 16.0616 179.306 13.5004 169.38 14.4402C159.44 15.3814 148.667 19.8771 137.096 29.445Z" fill="white" stroke="black" stroke-width="9.25776"/>
<path d="M296.431 187.921C296.431 187.921 231.058 -54.2612 134.147 25.8778C1.2821 135.741 296.431 187.921 296.431 187.921Z" fill="white" stroke="black" stroke-width="9.25776" stroke-linecap="round" stroke-linejoin="round"/>
<path d="M294.364 184.578L191.095 92.8506" stroke="black" stroke-width="9.25776" stroke-linecap="round" stroke-linejoin="round"/>
<path d="M249.785 184.857H340.693V296.447H249.785V184.857Z" fill="white" stroke="black" stroke-width="9.25776" stroke-linecap="round" stroke-linejoin="round"/>
<path d="M391.057 390.529C391.057 371.55 406.43 356.102 425.432 356.102C438.331 356.102 449.542 363.238 455.431 373.705C461.332 363.238 472.543 356.102 485.43 356.102C504.447 356.102 519.844 371.55 519.844 390.529C519.844 402.471 512.945 411.955 504.471 419.167C492.578 429.242 454.091 458.348 454.091 458.348C454.091 458.348 417.71 429.482 407.141 419.621C398.781 411.864 391.051 402.773 391.051 390.529H391.057Z" fill="#FF18B2"/>
</svg>
